<?xml version="1.0" encoding="utf-8"?>
<!-- Generator: Adobe Illustrator 23.0.6, SVG Export Plug-In . SVG Version: 6.00 Build 0)  -->
<svg version="1.1" id="Layer_1" xmlns="http://www.w3.org/2000/svg" xmlns:xlink="http://www.w3.org/1999/xlink" x="0px" y="0px"
	 viewBox="0 0 189 44" style="enable-background:new 0 0 189 44;" xml:space="preserve">
<style type="text/css">
	.st0{fill-rule:evenodd;clip-rule:evenodd;fill:#8BA73B;}
	.st1{fill:#8BA73B;}
	.st2{fill-rule:evenodd;clip-rule:evenodd;fill:#B2CE4D;}
	.st3{fill:#FEFEFE;}
	.st4{fill-rule:evenodd;clip-rule:evenodd;fill:#FEFEFE;}
	.st5{enable-background:new    ;}
	.st6{fill-rule:evenodd;clip-rule:evenodd;fill:#FFFFFF;}
	.st7{fill-rule:evenodd;clip-rule:evenodd;fill:#777777;}
</style>
<g id="Vector_Smart_Object_xA0_Image_1_">
	<path class="st0" d="M41.6,35.9c1,0,1.9,0.5,2.5,1.2c0.3,0.4,0.5,0.8,0.6,1.3c0.1,0.5,0.1,1,0.1,1.6c-0.1,0.6-0.3,1.1-0.5,1.6
		c-0.3,0.5-0.6,0.9-1,1.3c-0.8,0.7-1.8,1.2-2.8,1.2s-1.9-0.5-2.5-1.2c-0.3-0.4-0.5-0.8-0.6-1.3s-0.1-1-0.1-1.6
		c0.1-0.5,0.3-1.1,0.5-1.6c0.3-0.5,0.6-0.9,1-1.3C39.6,36.4,40.6,35.9,41.6,35.9"/>
	<path class="st0" d="M56.1,35.9c1.1,0,2,0.5,2.5,1.2c0.3,0.4,0.5,0.8,0.6,1.3c0.1,0.5,0.1,1,0,1.6s-0.3,1.1-0.6,1.6
		c-0.3,0.5-0.6,0.9-1,1.3c-0.8,0.7-1.8,1.2-2.9,1.2s-1.9-0.5-2.5-1.2c-0.3-0.4-0.5-0.8-0.6-1.3c-0.1-0.5-0.1-1,0-1.6
		s0.3-1.1,0.5-1.6s0.6-0.9,1-1.3C54,36.4,55.1,35.9,56.1,35.9"/>
	<path class="st0" d="M2.2,27.8c4.8,0,9.6,0,14.4,0s9.6,0,14.4,0c0.9,0,1.4,0.7,1.1,1.6l0,0C31.8,30.3,30.8,31,30,31H1.2
		c-0.9,0-1.4-0.7-1.1-1.6l0,0C0.4,28.5,1.3,27.8,2.2,27.8"/>
	<path class="st0" d="M4.6,11c3.6,0,7.3,0,10.9,0s7.3,0,10.9,0c0.7,0,1,0.7,0.8,1.6l0,0c-0.2,0.9-0.9,1.6-1.6,1.6H3.9
		c-0.7,0-1-0.7-0.8-1.6l0,0C3.3,11.7,4,11,4.6,11"/>
	<path class="st0" d="M13.9,18.9c2.4,0,4.7,0,7,0s4.7,0,7,0c0.4,0,0.7,0.7,0.5,1.6l0,0c-0.1,0.9-0.6,1.6-1,1.6H13.4
		c-0.4,0-0.7-0.7-0.5-1.6l0,0C13,19.6,13.4,18.9,13.9,18.9"/>
	<path class="st1" d="M38.3,27.9l0.5,2.3h22.4c1,0,1.8,0.9,1.8,2c0,1.1-0.8,2-1.8,2H37.4v0c-0.8,0-1.6-0.6-1.8-1.5L29.7,4.2h-6
		c-1,0-2.1-0.8-2.1-2c0-1.2,1-2,2.1-2h7.8c0.9,0,1.9,0.6,2,1.6v0l1,4.6h33.1c2,0.1,2.4,0.8,1.9,2.9L66.4,24c-0.7,3-2.7,4-5.4,3.9
		H39.5C39.1,27.9,38.7,27.9,38.3,27.9"/>
	<path class="st2" d="M48.4,14.6c-0.3,0-0.5,0.1-0.8,0.2c-0.2,0.2-0.3,0.4-0.4,0.7s0.1,0.6,0.2,0.8s0.4,0.3,0.7,0.4s0.5-0.1,0.8-0.2
		s0.3-0.4,0.4-0.7s-0.1-0.6-0.2-0.8C49,14.7,48.7,14.6,48.4,14.6 M67.6,7.6H34.5c-0.5,0-0.9-0.3-1-0.8l-1-4.6c0,0,0,0,0,0v0
		c-0.1-0.5-0.5-0.8-1-0.8h-7.8c-0.5,0-1,0.4-1,0.9s0.5,0.9,1,0.9h6c0.5,0,0.9,0.3,1,0.8L35,24.5c3.8-1.5,7.8-2.9,11.8-4
		c-0.9-0.3-1.7-0.8-2.3-1.5c-0.9-1-1.3-2.4-1.2-3.7s0.8-2.6,1.8-3.5c1-0.9,2.4-1.3,3.7-1.2c1.3,0.1,2.6,0.8,3.5,1.8s1.3,2.4,1.2,3.7
		c-0.1,1.1-0.5,2.2-1.3,3C57,17.8,62,16.9,67,16.2l1.5-7c0,0,0,0,0,0c0-0.2,0.3-1.2,0.1-1.4C68.5,7.7,67.8,7.6,67.6,7.6z"/>
	<path class="st3" d="M48.6,12.1c-0.9-0.1-1.8,0.2-2.5,0.8s-1.1,1.5-1.2,2.4c-0.1,0.9,0.2,1.8,0.8,2.5s1.5,1.1,2.4,1.2
		c0.9,0.1,1.8-0.2,2.5-0.8c0.7-0.6,1.1-1.5,1.2-2.4c0.1-0.9-0.2-1.8-0.8-2.5C50.4,12.6,49.5,12.2,48.6,12.1 M48.5,13.8
		c-0.5,0-1,0.1-1.3,0.4s-0.6,0.8-0.6,1.3c0,0.5,0.1,1,0.4,1.3s0.8,0.6,1.3,0.6c0.5,0,1-0.1,1.3-0.4s0.6-0.8,0.6-1.3
		c0-0.5-0.1-0.9-0.4-1.3C49.4,14,49,13.8,48.5,13.8z M46.6,13.6c0.6-0.5,1.3-0.7,1.9-0.6s1.3,0.4,1.8,0.9c0.5,0.6,0.7,1.3,0.6,1.9
		c0,0.7-0.4,1.3-0.9,1.8c-0.6,0.5-1.3,0.7-1.9,0.6c-0.7,0-1.3-0.4-1.8-0.9c-0.5-0.6-0.7-1.3-0.6-1.9C45.8,14.7,46.1,14.1,46.6,13.6z
		 M45.6,12.3c0.9-0.8,2-1.1,3.1-1s2.2,0.6,2.9,1.5c0.8,0.9,1.1,2,1,3.1s-0.6,2.2-1.5,2.9c-0.9,0.8-2,1.1-3.1,1s-2.2-0.6-2.9-1.5
		c-0.8-0.9-1.1-2-1-3.1C44.2,14.2,44.7,13.1,45.6,12.3z"/>
	<path class="st0" d="M60.2,20.1l1.8,2.1l-5.3,4.5c-0.5,0.4-1.2,0.4-1.6-0.1l-0.4-0.5c-0.3-0.3-0.3-0.7-0.2-1.1
		c-0.2,0-0.4-0.1-0.5-0.1c-0.5-0.1-1-0.3-1.6-0.3l-1.7,0c-0.9,0-1.6-0.7-1.5-1.6c0.1-0.9,0.8-1.6,1.7-1.6l0.2,0L47,16.6
		c-0.3-0.4-0.5-0.9-0.3-1.5c0.4-1.2,2-1.7,2.9-0.8l1.6,1.9c0.3-0.3,0.8-0.4,1.2-0.4c0.1-0.1,0.2-0.3,0.3-0.4c0.5-0.4,1-0.5,1.5-0.4
		l0,0l0,0c0,0,0,0,0,0l0,0l0,0c0,0,0,0,0,0l0,0l0,0l0,0l0,0l0,0c0,0,0,0,0,0c0.7-0.6,1.8-0.6,2.3,0.1l2.9,3.4
		c0.3,0.3,0.4,0.8,0.4,1.2l0.2,0.2C60.1,19.9,60.2,20,60.2,20.1"/>
	<path class="st4" d="M60.1,21.1l-4.7,4c-0.2,0.1-0.2,0.4-0.1,0.6l0.4,0.5c0.1,0.2,0.4,0.2,0.6,0l4.7-4L60.1,21.1z M49,14.9l2.2,2.6
		c0-0.2,0.1-0.5,0.4-0.7c0.4-0.3,0.9-0.3,1.2-0.1c0-0.3,0.1-0.6,0.4-0.8c0.4-0.3,1-0.3,1.3,0l0,0v0v0l0,0v0v0v0v0v0v0v0v0v0v0v0v0v0
		v0v0v0l0,0v0l0,0l0,0l0,0l0,0l0,0l0,0l0,0v0l0,0l0,0l0,0l0,0l0,0l0,0c0,0,0,0,0,0l0,0l0,0c0,0,0,0,0,0l0,0c0,0,0,0,0,0l0,0l0,0l0,0
		c0,0,0,0,0,0l0,0l0,0l0,0l0,0l0,0c0,0,0,0,0,0l0,0c0,0,0,0,0,0l0,0c0,0,0,0,0,0l0,0c0,0,0,0,0,0l0,0c0,0,0,0,0,0l0,0c0,0,0,0,0,0
		l0,0c0,0,0,0,0,0l0,0l0,0c0,0,0,0,0,0l0,0l0,0c0,0,0,0,0,0l0,0c0.4-0.3,1-0.3,1.3,0l2.9,3.4c0.2,0.3,0.3,0.6,0.2,1l0,0l0.4,0.4
		c0.2,0.2,0.2,0.6-0.1,0.8l-3.8,3.3c-0.5,0.4-1.5-0.3-3-0.3l-1.7,0c-0.5,0-0.9-0.4-0.9-0.9l0,0c0-0.5,0.5-0.9,1-0.9l1.7-0.1l-5.1-6
		C46.8,15.3,48.3,14,49,14.9z"/>
</g>
<g id="efway_1_" class="st5">
	<g id="efway">
		<g>
			<path class="st6" d="M71.3,28h13.7l0.8-4.7H78l0.7-3.8h6.9l0.8-4.5h-6.9l0.6-3.5h7.8l0.8-4.7H75L71.3,28z M89.1,28h5.9l1.5-8.3
				h6.4l0.8-4.4h-6.3l0.7-3.8h8.5l0.8-4.7H92.9L89.1,28z M134.6,6.7l-4.9,14.5l-0.8-14.5h-6.4l-5.8,14.5l0.2-14.5h-6.4l1.2,21.2h7.3
				l5.2-13.1L125,28h7.3L141,6.7C141,6.7,134.6,6.7,134.6,6.7z M151.3,6.8L139.8,28h6.2l1.8-3.5h7.5l0.5,3.5h6.2l-4.1-21.2H151.3z
				 M150,20l3.5-6.9l1.1,6.9H150z M181.8,6.7l-5.2,8.1l-2.3-8.1h-6.8l4.9,14.5l-1.1,6.8h5.9l1.2-6.8l10.1-14.5
				C188.4,6.7,181.8,6.7,181.8,6.7z"/>
		</g>
	</g>
</g>
<g id="fresh_Stores_1_" class="st5">
	<g id="fresh_Stores">
		<g>
			<path class="st7" d="M69.3,43h1.4l0.7-3.7h3l0.2-1.1h-3l0.5-2.6h3.6l0.2-1.1h-5L69.3,43z M83,34.5h-3L78.6,43h1.4l0.6-3.4h1
				L83,43h1.5L83,39.5c0.7-0.1,1.3-0.4,1.8-0.8c0.4-0.4,0.7-1,0.8-1.6c0.1-0.8,0-1.4-0.4-1.9C84.7,34.7,84,34.5,83,34.5z M84.1,37.1
				c-0.2,1-0.8,1.5-1.9,1.5h-1.5l0.5-2.9h1.5c0.6,0,1,0.1,1.2,0.4C84.1,36.3,84.2,36.7,84.1,37.1z M88.7,43h4.8l0.2-1.1h-3.5
				l0.5-2.6h3.1l0.2-1.1H91l0.4-2.6h3.5l0.2-1.1h-4.8L88.7,43z M100.7,35.8c0.3-0.2,0.6-0.3,1-0.3c0.4,0,0.7,0.1,0.9,0.3
				c0.2,0.2,0.3,0.5,0.3,0.8h1.5c0.1-0.7-0.2-1.2-0.6-1.6c-0.4-0.4-1.1-0.6-1.9-0.6c-0.5,0-1,0.1-1.5,0.3s-0.8,0.5-1.1,0.8
				c-0.3,0.3-0.5,0.7-0.6,1.2c-0.1,0.5-0.1,0.9,0.1,1.3s0.4,0.6,0.7,0.7c0.3,0.2,0.7,0.3,1.2,0.5c0.4,0.1,0.7,0.3,0.9,0.4
				c0.2,0.1,0.4,0.3,0.5,0.5c0.1,0.2,0.2,0.5,0.1,0.8c-0.1,0.3-0.2,0.6-0.5,0.9c-0.3,0.2-0.6,0.3-1,0.3c-0.5,0-0.8-0.1-1-0.4
				c-0.2-0.3-0.3-0.6-0.3-1h-1.5c0,0.5,0,0.9,0.2,1.3c0.2,0.4,0.5,0.7,0.9,0.9c0.4,0.2,0.9,0.3,1.5,0.3c0.6,0,1.1-0.1,1.6-0.3
				s0.8-0.5,1.1-0.9c0.3-0.4,0.4-0.7,0.5-1.2c0.1-0.5,0.1-1-0.1-1.3c-0.2-0.3-0.4-0.6-0.7-0.8c-0.3-0.2-0.7-0.3-1.2-0.5
				c-0.4-0.1-0.7-0.3-0.9-0.4c-0.2-0.1-0.4-0.3-0.5-0.4c-0.1-0.2-0.2-0.4-0.1-0.7C100.3,36.2,100.4,36,100.7,35.8z M114.1,38h-4
				l0.6-3.5h-1.4l-1.5,8.5h1.4l0.7-3.8h4l-0.7,3.8h1.4l1.5-8.5h-1.4L114.1,38z M127.8,35.8c0.3-0.2,0.6-0.3,1-0.3
				c0.4,0,0.7,0.1,0.9,0.3s0.3,0.5,0.3,0.8h1.5c0.1-0.7-0.1-1.2-0.6-1.6c-0.4-0.4-1.1-0.6-1.9-0.6c-0.5,0-1,0.1-1.5,0.3
				s-0.8,0.5-1.1,0.8c-0.3,0.3-0.5,0.7-0.6,1.2c-0.1,0.5-0.1,0.9,0.1,1.3s0.4,0.6,0.7,0.7c0.3,0.2,0.7,0.3,1.2,0.5
				c0.4,0.1,0.7,0.3,1,0.4c0.2,0.1,0.4,0.3,0.5,0.5c0.1,0.2,0.2,0.5,0.1,0.8c-0.1,0.3-0.2,0.6-0.5,0.9c-0.3,0.2-0.6,0.3-1,0.3
				c-0.5,0-0.8-0.1-1-0.4c-0.2-0.3-0.3-0.6-0.3-1h-1.5c0,0.5,0,0.9,0.2,1.3c0.2,0.4,0.5,0.7,0.9,0.9c0.4,0.2,0.9,0.3,1.5,0.3
				c0.6,0,1.1-0.1,1.6-0.3c0.4-0.2,0.8-0.5,1.1-0.9s0.4-0.7,0.5-1.2c0.1-0.5,0.1-1-0.1-1.3c-0.2-0.3-0.4-0.6-0.7-0.8
				s-0.7-0.3-1.2-0.5c-0.4-0.1-0.7-0.3-0.9-0.4c-0.2-0.1-0.4-0.3-0.5-0.4c-0.1-0.2-0.2-0.4-0.1-0.7C127.4,36.2,127.6,36,127.8,35.8z
				 M135.6,35.6h2.4l-1.3,7.4h1.4l1.3-7.4h2.4l0.2-1.1h-6.1L135.6,35.6z M151.9,34.9c-0.6-0.4-1.3-0.5-2-0.5c-0.8,0-1.5,0.2-2.2,0.5
				c-0.7,0.4-1.3,0.9-1.8,1.5c-0.5,0.7-0.8,1.4-0.9,2.2s-0.1,1.6,0.2,2.2s0.7,1.2,1.2,1.5c0.6,0.4,1.3,0.6,2,0.6
				c0.8,0,1.5-0.2,2.2-0.6c0.7-0.4,1.3-0.9,1.8-1.5c0.5-0.7,0.8-1.4,0.9-2.2c0.1-0.8,0.1-1.6-0.1-2.2
				C152.9,35.8,152.5,35.3,151.9,34.9z M151.9,38.7c-0.1,0.6-0.3,1.2-0.6,1.6c-0.3,0.5-0.7,0.8-1.2,1.1c-0.5,0.3-1,0.4-1.5,0.4
				s-1-0.1-1.4-0.4s-0.6-0.6-0.8-1.1c-0.1-0.5-0.2-1-0.1-1.6c0.1-0.6,0.3-1.2,0.6-1.6c0.3-0.5,0.7-0.8,1.2-1.1
				c0.5-0.3,1-0.4,1.5-0.4c0.5,0,1,0.1,1.4,0.4c0.4,0.3,0.6,0.6,0.8,1.1C152,37.5,152,38.1,151.9,38.7z M161.4,34.5h-3l-1.5,8.5h1.4
				l0.6-3.4h1l1.5,3.4h1.5l-1.6-3.4c0.7-0.1,1.3-0.4,1.8-0.8c0.4-0.4,0.7-1,0.9-1.6c0.1-0.8,0-1.4-0.4-1.9
				C163.1,34.7,162.4,34.5,161.4,34.5z M162.5,37.1c-0.2,1-0.8,1.5-1.9,1.5h-1.5l0.5-2.9h1.5c0.6,0,1,0.1,1.2,0.4
				C162.5,36.3,162.6,36.7,162.5,37.1z M167.1,43h4.9l0.2-1.1h-3.5l0.5-2.6h3.1l0.2-1.1h-3.1l0.4-2.6h3.5l0.2-1.1h-4.9L167.1,43z
				 M181.4,38.7c-0.3-0.2-0.7-0.3-1.2-0.5c-0.4-0.1-0.7-0.3-0.9-0.4c-0.2-0.1-0.4-0.3-0.5-0.4c-0.1-0.2-0.2-0.4-0.1-0.7
				c0.1-0.4,0.2-0.7,0.5-0.8c0.3-0.2,0.6-0.3,1-0.3c0.4,0,0.7,0.1,0.9,0.3s0.3,0.5,0.3,0.8h1.5c0.1-0.7-0.1-1.2-0.6-1.6
				c-0.4-0.4-1.1-0.6-1.9-0.6c-0.5,0-1,0.1-1.5,0.3c-0.4,0.2-0.8,0.5-1.1,0.8c-0.3,0.3-0.5,0.7-0.6,1.2c-0.1,0.5-0.1,0.9,0.1,1.3
				c0.2,0.3,0.4,0.6,0.7,0.7c0.3,0.2,0.7,0.3,1.2,0.5c0.4,0.1,0.7,0.3,0.9,0.4s0.4,0.3,0.5,0.5c0.1,0.2,0.2,0.5,0.1,0.8
				c-0.1,0.3-0.2,0.6-0.5,0.9c-0.3,0.2-0.6,0.3-1,0.3c-0.5,0-0.8-0.1-1-0.4c-0.2-0.3-0.3-0.6-0.3-1h-1.5c0,0.5,0,0.9,0.2,1.3
				c0.2,0.4,0.5,0.7,0.9,0.9c0.4,0.2,0.9,0.3,1.5,0.3c0.6,0,1.1-0.1,1.6-0.3c0.4-0.2,0.8-0.5,1.1-0.9s0.4-0.7,0.5-1.2
				c0.1-0.5,0.1-1-0.1-1.3C181.9,39.1,181.7,38.8,181.4,38.7z"/>
		</g>
	</g>
</g>
</svg>
