<?xml version="1.0" encoding="utf-8"?>
<!-- Generator: Adobe Illustrator 23.0.6, SVG Export Plug-In . SVG Version: 6.00 Build 0)  -->
<svg version="1.1" xmlns="http://www.w3.org/2000/svg" xmlns:xlink="http://www.w3.org/1999/xlink" x="0px" y="0px"
	 viewBox="0 0 189 44" style="enable-background:new 0 0 189 44;" xml:space="preserve">
<style type="text/css">
	.st0{fill-rule:evenodd;clip-rule:evenodd;fill:#8BA73B;}
	.st1{fill:#8BA73B;}
	.st2{filter:url(#Adobe_OpacityMaskFilter);}
	.st3{fill:url(#SVGID_2_);}
	.st4{mask:url(#SVGID_1_);fill-rule:evenodd;clip-rule:evenodd;fill:#B2CE4D;}
	.st5{fill:#FEFEFE;}
	.st6{fill-rule:evenodd;clip-rule:evenodd;fill:#FEFEFE;}
	.st7{enable-background:new    ;}
	.st8{fill-rule:evenodd;clip-rule:evenodd;fill:#27272F;}
	.st9{fill-rule:evenodd;clip-rule:evenodd;fill:#626262;}
</style>
<g id="Vector_Smart_Object_xA0_Image_1_">
	<path class="st0" d="M41.64,35.91c1.04,0,1.91,0.45,2.48,1.18c0.29,0.37,0.5,0.8,0.61,1.28c0.12,0.48,0.14,1.01,0.06,1.57
		c-0.09,0.56-0.27,1.08-0.54,1.56c-0.26,0.48-0.61,0.91-1,1.27c-0.79,0.72-1.79,1.16-2.82,1.15c-1.03-0.01-1.9-0.45-2.47-1.18
		c-0.28-0.36-0.49-0.79-0.61-1.27c-0.12-0.48-0.14-1.01-0.06-1.56c0.08-0.55,0.26-1.08,0.52-1.56c0.26-0.48,0.59-0.91,0.98-1.27
		C39.59,36.36,40.6,35.91,41.64,35.91"/>
	<path class="st0" d="M56.14,35.91c1.06,0,1.95,0.46,2.52,1.2c0.29,0.37,0.5,0.81,0.62,1.29c0.12,0.49,0.14,1.02,0.05,1.58
		c-0.09,0.56-0.29,1.09-0.56,1.58c-0.27,0.48-0.63,0.92-1.03,1.28c-0.81,0.73-1.84,1.17-2.89,1.16c-1.05-0.01-1.93-0.46-2.5-1.19
		c-0.29-0.37-0.5-0.8-0.61-1.28c-0.12-0.48-0.14-1.01-0.05-1.57c0.09-0.56,0.28-1.09,0.55-1.57c0.27-0.48,0.62-0.92,1.02-1.29
		C54.05,36.37,55.08,35.91,56.14,35.91"/>
	<path class="st0" d="M2.19,27.76c4.79,0,9.58,0,14.37,0c4.79,0,9.58,0,14.37,0c0.87,0,1.37,0.73,1.1,1.62l0,0
		c-0.26,0.89-1.2,1.62-2.07,1.62H1.17c-0.87,0-1.35-0.73-1.07-1.62l0,0C0.39,28.49,1.32,27.76,2.19,27.76"/>
	<path class="st0" d="M4.63,11.02c3.62,0,7.25,0,10.87,0c3.62,0,7.25,0,10.87,0c0.66,0,1.03,0.73,0.83,1.62l0,0
		c-0.2,0.89-0.9,1.62-1.56,1.62H3.86c-0.66,0-1.02-0.73-0.81-1.62l0,0C3.26,11.74,3.97,11.02,4.63,11.02"/>
	<path class="st0" d="M13.85,18.89c2.35,0,4.69,0,7.04,0c2.35,0,4.69,0,7.04,0c0.42,0,0.67,0.73,0.54,1.62l0,0
		c-0.13,0.89-0.59,1.62-1.01,1.62H13.35c-0.43,0-0.66-0.73-0.52-1.62l0,0C12.97,19.62,13.43,18.89,13.85,18.89"/>
	<path class="st1" d="M38.34,27.89l0.47,2.26h22.4c1,0,1.82,0.89,1.82,1.98c0,1.09-0.81,1.98-1.82,1.98H37.36v-0.01
		c-0.83,0-1.58-0.62-1.77-1.54L29.72,4.18h-6.04c-1.02,0-2.06-0.78-2.06-1.96c0-1.19,1.04-1.96,2.06-1.96h7.75
		c0.91,0,1.86,0.62,2.03,1.65l0,0.02l1.02,4.64h33.09c2.04,0.07,2.43,0.81,1.95,2.9L66.4,24.03c-0.69,3.03-2.68,3.97-5.38,3.9H39.46
		C39.07,27.94,38.7,27.93,38.34,27.89"/>
	<defs>
		<filter id="Adobe_OpacityMaskFilter" filterUnits="userSpaceOnUse" x="22.65" y="1.29" width="46.03" height="23.2">
			<feColorMatrix  type="matrix" values="1 0 0 0 0  0 1 0 0 0  0 0 1 0 0  0 0 0 1 0"/>
		</filter>
	</defs>
	<mask maskUnits="userSpaceOnUse" x="22.65" y="1.29" width="46.03" height="23.2" id="SVGID_1_">
		<g class="st2">
			
				<linearGradient id="SVGID_2_" gradientUnits="userSpaceOnUse" x1="-203.4449" y1="615.0531" x2="-201.0607" y2="573.066" gradientTransform="matrix(1 0 0 1 247.5039 -573.9219)">
				<stop  offset="0" style="stop-color:#FFFFFF"/>
				<stop  offset="1" style="stop-color:#000000"/>
			</linearGradient>
			<rect x="22.65" y="1.29" class="st3" width="46.03" height="23.2"/>
		</g>
	</mask>
	<path class="st4" d="M48.44,14.57c-0.28-0.02-0.55,0.06-0.76,0.24c-0.21,0.18-0.34,0.43-0.36,0.71c-0.02,0.28,0.06,0.55,0.24,0.76
		c0.18,0.21,0.43,0.34,0.71,0.36c0.28,0.02,0.55-0.06,0.76-0.24c0.21-0.18,0.34-0.43,0.36-0.71c0.02-0.28-0.06-0.55-0.24-0.76
		C48.97,14.72,48.71,14.6,48.44,14.57 M67.55,7.59H34.48c-0.49,0-0.9-0.33-1.01-0.81l-1.02-4.64c0-0.02-0.01-0.03-0.01-0.05l0-0.02
		c-0.08-0.48-0.55-0.79-1.02-0.79h-7.75c-0.52,0-1.03,0.38-1.03,0.93c0,0.55,0.51,0.93,1.03,0.93h6.04c0.49,0,0.91,0.34,1.01,0.82
		l4.25,20.51c3.84-1.55,7.76-2.88,11.76-4.03c-0.88-0.29-1.66-0.82-2.27-1.54c-0.88-1.03-1.31-2.37-1.2-3.72
		c0.11-1.35,0.75-2.6,1.78-3.48c1.03-0.88,2.37-1.31,3.72-1.2c1.35,0.11,2.6,0.75,3.48,1.78c0.88,1.03,1.31,2.37,1.2,3.72
		c-0.09,1.13-0.55,2.18-1.29,3c4.86-1.17,9.82-2.09,14.86-2.79l1.5-6.99c0-0.01,0-0.01,0-0.02C68.56,9.02,68.77,8,68.62,7.8
		C68.5,7.65,67.76,7.6,67.55,7.59z"/>
	<path class="st5" d="M48.63,12.14c-0.89-0.07-1.81,0.2-2.54,0.82c-0.73,0.62-1.14,1.49-1.22,2.37c-0.07,0.89,0.2,1.81,0.82,2.54
		c0.62,0.73,1.49,1.14,2.37,1.22c0.89,0.07,1.81-0.2,2.54-0.82c0.73-0.62,1.14-1.49,1.22-2.37c0.07-0.89-0.2-1.81-0.82-2.54
		C50.39,12.62,49.52,12.21,48.63,12.14 M48.5,13.77c-0.47-0.04-0.95,0.1-1.34,0.43c-0.39,0.33-0.6,0.79-0.64,1.25
		c-0.04,0.47,0.1,0.95,0.43,1.34c0.33,0.39,0.79,0.6,1.25,0.64c0.47,0.04,0.95-0.1,1.34-0.43c0.39-0.33,0.6-0.79,0.64-1.26
		c0.04-0.47-0.1-0.95-0.43-1.34C49.43,14.03,48.97,13.81,48.5,13.77z M46.63,13.58c0.56-0.48,1.26-0.68,1.94-0.63
		c0.68,0.05,1.34,0.37,1.81,0.93c0.48,0.56,0.68,1.26,0.63,1.94c-0.05,0.68-0.37,1.34-0.93,1.81c-0.56,0.48-1.26,0.68-1.94,0.63
		c-0.68-0.05-1.34-0.37-1.81-0.93c-0.48-0.56-0.68-1.26-0.63-1.94C45.75,14.72,46.07,14.06,46.63,13.58z M45.56,12.33
		c0.91-0.77,2.04-1.1,3.14-1.01c1.1,0.09,2.16,0.6,2.93,1.5c0.77,0.91,1.1,2.04,1.01,3.14c-0.09,1.1-0.6,2.16-1.5,2.93
		c-0.91,0.77-2.04,1.1-3.14,1.01c-1.1-0.09-2.16-0.6-2.93-1.5c-0.77-0.91-1.1-2.04-1.01-3.14C44.15,14.17,44.66,13.1,45.56,12.33z"
		/>
	<path class="st0" d="M60.24,20.14l1.83,2.15l-5.25,4.46c-0.5,0.42-1.21,0.38-1.59-0.07l-0.44-0.52c-0.25-0.3-0.31-0.71-0.17-1.07
		c-0.18-0.03-0.36-0.07-0.54-0.11c-0.53-0.13-1.03-0.25-1.59-0.25l-1.74,0.01c-0.89,0-1.62-0.68-1.51-1.58
		c0.07-0.87,0.84-1.61,1.73-1.65l0.17-0.01l-4.18-4.91c-0.34-0.4-0.45-0.93-0.25-1.47c0.44-1.21,2.03-1.72,2.86-0.75l1.58,1.86
		c0.34-0.28,0.76-0.42,1.15-0.41c0.1-0.15,0.21-0.28,0.35-0.4c0.45-0.38,1.03-0.51,1.53-0.4c0,0,0.01-0.01,0.01-0.01l0,0
		c0.01-0.01,0.01-0.01,0.02-0.02l0,0L54.23,15c0.01-0.01,0.01-0.01,0.02-0.02l0.01-0.01l0.01-0.01c0,0,0.01-0.01,0.01-0.01l0,0
		l0.01-0.01c0.01-0.01,0.02-0.02,0.03-0.03c0.71-0.61,1.75-0.58,2.3,0.07l2.86,3.36c0.29,0.33,0.41,0.76,0.37,1.2l0.18,0.21
		C60.12,19.87,60.19,20,60.24,20.14"/>
	<path class="st6" d="M60.1,21.13l-4.68,3.98c-0.17,0.15-0.2,0.41-0.06,0.57l0.44,0.52c0.14,0.17,0.4,0.18,0.57,0.03l4.68-3.98
		L60.1,21.13z M48.99,14.87l2.21,2.6c0.02-0.24,0.14-0.49,0.36-0.67c0.36-0.31,0.86-0.33,1.18-0.07c0-0.27,0.12-0.56,0.36-0.77
		c0.4-0.34,0.98-0.33,1.29,0.03l0.03,0.04l0-0.01l0-0.01v0l0-0.01l0-0.01l0-0.01l0-0.01l0-0.01l0-0.01l0-0.01l0-0.01l0-0.01l0-0.01
		l0-0.01l0-0.01l0-0.01l0-0.01l0-0.01l0-0.01l0.01-0.01l0-0.01l0.01-0.02l0,0l0.01-0.02l0,0l0.01-0.02l0,0l0.01-0.02l0-0.01
		l0.01-0.01l0,0l0.01-0.02l0,0l0.01-0.02l0,0c0-0.01,0.01-0.01,0.01-0.02l0,0l0,0c0-0.01,0.01-0.01,0.01-0.02v0
		c0-0.01,0.01-0.01,0.01-0.02h0l0,0l0,0c0-0.01,0.01-0.01,0.01-0.02l0,0l0,0l0.01-0.01l0,0l0,0c0-0.01,0.01-0.01,0.01-0.02l0,0
		c0-0.01,0.01-0.01,0.01-0.02l0,0c0-0.01,0.01-0.01,0.01-0.02l0,0c0-0.01,0.01-0.01,0.01-0.02l0,0c0.01-0.01,0.01-0.01,0.02-0.02
		l0,0c0.01-0.01,0.01-0.01,0.02-0.02l0,0c0.01-0.01,0.01-0.01,0.02-0.02l0,0l0,0c0.01,0,0.01-0.01,0.02-0.01l0,0l0,0
		c0.01-0.01,0.01-0.01,0.02-0.02v0c0.4-0.34,0.98-0.33,1.29,0.03l2.86,3.37c0.24,0.28,0.27,0.63,0.16,0.96l0,0l0.38,0.44
		c0.19,0.23,0.16,0.58-0.08,0.78l-3.82,3.25c-0.51,0.44-1.55-0.26-2.99-0.25l-1.74,0.01c-0.5,0-0.92-0.37-0.86-0.86h0
		c0.03-0.5,0.47-0.92,0.97-0.94l1.73-0.07l-5.14-6.04C46.8,15.25,48.26,14.01,48.99,14.87z"/>
</g>
<g id="efway_1_" class="st7">
	<g id="efway">
		<g>
			<path class="st8" d="M71.26,27.95h13.68l0.84-4.71h-7.77l0.66-3.84h6.87l0.81-4.47h-6.9l0.63-3.51h7.77l0.81-4.71H74.98
				L71.26,27.95z M89.14,27.95h5.91l1.47-8.31h6.36l0.75-4.44H97.3l0.66-3.78h8.49l0.84-4.71H92.86L89.14,27.95z M134.59,6.71
				l-4.89,14.46l-0.75-14.46h-6.45l-5.82,14.46l0.21-14.46h-6.36l1.23,21.24h7.32l5.22-13.11l0.66,13.11h7.32l8.67-21.24H134.59z
				 M151.27,6.8l-11.49,21.15h6.21l1.8-3.54h7.53l0.54,3.54h6.24L158.05,6.8H151.27z M150.04,19.97l3.51-6.9l1.08,6.9H150.04z
				 M181.78,6.71l-5.16,8.1l-2.31-8.1h-6.75l4.92,14.49l-1.14,6.75h5.88l1.17-6.75l10.05-14.49H181.78z"/>
		</g>
	</g>
</g>
<g id="fresh_Stores_1_" class="st7">
	<g id="fresh_Stores">
		<g>
			<path class="st9" d="M69.33,42.95h1.37l0.65-3.68h3l0.19-1.06h-3L72,35.58h3.64l0.19-1.1h-5L69.33,42.95z M83.04,34.48h-2.99
				l-1.49,8.47h1.37l0.6-3.38h0.97l1.52,3.38h1.54l-1.61-3.44c0.73-0.12,1.31-0.39,1.76-0.82c0.45-0.42,0.73-0.97,0.85-1.63
				c0.14-0.78,0-1.4-0.42-1.87C84.7,34.71,84.01,34.48,83.04,34.48z M84.12,37.13c-0.17,0.98-0.81,1.46-1.91,1.46h-1.51l0.52-2.94
				h1.51c0.57,0,0.96,0.13,1.19,0.39C84.13,36.3,84.2,36.67,84.12,37.13z M88.73,42.95h4.85l0.2-1.12H90.3l0.46-2.63h3.12l0.19-1.06
				h-3.12l0.45-2.57h3.48l0.19-1.1h-4.85L88.73,42.95z M100.72,35.76c0.27-0.2,0.59-0.29,0.98-0.29c0.42,0,0.74,0.11,0.94,0.34
				c0.2,0.23,0.31,0.5,0.31,0.82h1.48c0.05-0.67-0.15-1.22-0.58-1.63c-0.43-0.42-1.08-0.62-1.95-0.62c-0.54,0-1.04,0.09-1.49,0.28
				c-0.45,0.19-0.82,0.45-1.1,0.8c-0.28,0.34-0.47,0.74-0.55,1.2c-0.09,0.52-0.05,0.94,0.13,1.26c0.18,0.32,0.41,0.56,0.72,0.73
				c0.3,0.17,0.7,0.34,1.2,0.5c0.41,0.14,0.72,0.27,0.95,0.38c0.23,0.11,0.41,0.27,0.54,0.46c0.13,0.2,0.17,0.45,0.12,0.75
				c-0.06,0.35-0.23,0.64-0.49,0.86c-0.27,0.22-0.61,0.34-1.03,0.34c-0.46,0-0.81-0.13-1.04-0.4c-0.23-0.26-0.33-0.58-0.31-0.95
				h-1.46c-0.04,0.48,0.04,0.9,0.24,1.27c0.21,0.37,0.52,0.65,0.94,0.86c0.42,0.2,0.92,0.31,1.49,0.31c0.59,0,1.11-0.11,1.56-0.32
				s0.8-0.5,1.06-0.86c0.26-0.36,0.43-0.74,0.5-1.16c0.09-0.54,0.05-0.97-0.13-1.3c-0.18-0.33-0.42-0.58-0.73-0.75
				c-0.31-0.17-0.72-0.34-1.22-0.51c-0.4-0.14-0.71-0.27-0.94-0.38c-0.22-0.11-0.4-0.26-0.53-0.44c-0.13-0.19-0.16-0.43-0.11-0.71
				C100.28,36.23,100.45,35.95,100.72,35.76z M114.07,38.03h-3.98l0.63-3.55h-1.37l-1.49,8.47h1.37l0.67-3.8h3.98l-0.67,3.8h1.38
				l1.49-8.47h-1.38L114.07,38.03z M127.85,35.76c0.27-0.2,0.59-0.29,0.98-0.29c0.42,0,0.74,0.11,0.94,0.34
				c0.2,0.23,0.31,0.5,0.31,0.82h1.48c0.05-0.67-0.15-1.22-0.58-1.63c-0.43-0.42-1.08-0.62-1.95-0.62c-0.54,0-1.04,0.09-1.49,0.28
				c-0.45,0.19-0.82,0.45-1.1,0.8c-0.28,0.34-0.47,0.74-0.55,1.2c-0.09,0.52-0.05,0.94,0.13,1.26c0.18,0.32,0.41,0.56,0.72,0.73
				c0.3,0.17,0.7,0.34,1.2,0.5c0.41,0.14,0.72,0.27,0.95,0.38c0.23,0.11,0.41,0.27,0.54,0.46c0.13,0.2,0.17,0.45,0.12,0.75
				c-0.06,0.35-0.23,0.64-0.49,0.86c-0.27,0.22-0.61,0.34-1.03,0.34c-0.46,0-0.81-0.13-1.04-0.4c-0.23-0.26-0.33-0.58-0.31-0.95
				h-1.46c-0.04,0.48,0.04,0.9,0.24,1.27c0.21,0.37,0.52,0.65,0.94,0.86c0.42,0.2,0.92,0.31,1.49,0.31c0.59,0,1.11-0.11,1.56-0.32
				c0.45-0.22,0.8-0.5,1.06-0.86c0.26-0.36,0.43-0.74,0.5-1.16c0.09-0.54,0.05-0.97-0.13-1.3c-0.18-0.33-0.42-0.58-0.73-0.75
				c-0.31-0.17-0.72-0.34-1.22-0.51c-0.4-0.14-0.71-0.27-0.94-0.38c-0.22-0.11-0.4-0.26-0.53-0.44c-0.13-0.19-0.16-0.43-0.11-0.71
				C127.42,36.23,127.58,35.95,127.85,35.76z M135.63,35.58h2.35l-1.3,7.37h1.38l1.3-7.37h2.36l0.19-1.1h-6.1L135.63,35.58z
				 M151.92,34.92c-0.57-0.37-1.25-0.55-2.03-0.55c-0.79,0-1.54,0.18-2.24,0.55c-0.7,0.37-1.29,0.88-1.78,1.54
				c-0.48,0.66-0.8,1.41-0.95,2.24c-0.15,0.83-0.09,1.58,0.16,2.24c0.25,0.66,0.66,1.18,1.23,1.55c0.57,0.37,1.25,0.56,2.04,0.56
				c0.78,0,1.53-0.19,2.23-0.56c0.7-0.37,1.29-0.89,1.77-1.55c0.48-0.66,0.79-1.41,0.94-2.24c0.15-0.83,0.1-1.58-0.15-2.24
				C152.9,35.8,152.49,35.29,151.92,34.92z M151.89,38.7c-0.11,0.62-0.32,1.16-0.64,1.62c-0.32,0.46-0.71,0.82-1.17,1.07
				c-0.46,0.25-0.96,0.37-1.5,0.37c-0.54,0-1.01-0.12-1.39-0.37c-0.38-0.25-0.65-0.6-0.8-1.07c-0.15-0.46-0.18-1-0.07-1.62
				c0.11-0.62,0.32-1.16,0.64-1.62c0.32-0.46,0.71-0.82,1.18-1.07c0.47-0.25,0.97-0.37,1.52-0.37c0.54,0,0.99,0.12,1.37,0.37
				c0.38,0.25,0.64,0.6,0.8,1.07C151.98,37.55,152,38.09,151.89,38.7z M161.41,34.48h-2.99l-1.49,8.47h1.37l0.6-3.38h0.97l1.52,3.38
				h1.54l-1.61-3.44c0.73-0.12,1.31-0.39,1.76-0.82c0.45-0.42,0.73-0.97,0.85-1.63c0.14-0.78,0-1.4-0.42-1.87
				C163.07,34.71,162.38,34.48,161.41,34.48z M162.49,37.13c-0.17,0.98-0.81,1.46-1.91,1.46h-1.51l0.52-2.94h1.51
				c0.57,0,0.96,0.13,1.19,0.39C162.5,36.3,162.57,36.67,162.49,37.13z M167.1,42.95h4.85l0.2-1.12h-3.48l0.46-2.63h3.12l0.19-1.06
				h-3.12l0.45-2.57h3.48l0.19-1.1h-4.85L167.1,42.95z M181.39,38.65c-0.31-0.17-0.72-0.34-1.22-0.51c-0.4-0.14-0.71-0.27-0.94-0.38
				c-0.22-0.11-0.4-0.26-0.53-0.44c-0.13-0.19-0.16-0.43-0.11-0.71c0.06-0.37,0.23-0.65,0.5-0.85c0.27-0.2,0.59-0.29,0.98-0.29
				c0.42,0,0.74,0.11,0.94,0.34c0.2,0.23,0.31,0.5,0.31,0.82h1.48c0.05-0.67-0.15-1.22-0.58-1.63c-0.43-0.42-1.08-0.62-1.95-0.62
				c-0.54,0-1.04,0.09-1.49,0.28c-0.45,0.19-0.82,0.45-1.1,0.8c-0.28,0.34-0.47,0.74-0.55,1.2c-0.09,0.52-0.05,0.94,0.13,1.26
				c0.18,0.32,0.41,0.56,0.72,0.73c0.3,0.17,0.7,0.34,1.2,0.5c0.41,0.14,0.72,0.27,0.95,0.38c0.23,0.11,0.41,0.27,0.54,0.46
				c0.13,0.2,0.17,0.45,0.12,0.75c-0.06,0.35-0.23,0.64-0.49,0.86c-0.27,0.22-0.61,0.34-1.03,0.34c-0.46,0-0.81-0.13-1.04-0.4
				c-0.23-0.26-0.33-0.58-0.31-0.95h-1.46c-0.04,0.48,0.04,0.9,0.24,1.27c0.21,0.37,0.52,0.65,0.94,0.86
				c0.42,0.2,0.92,0.31,1.49,0.31c0.59,0,1.11-0.11,1.56-0.32c0.45-0.22,0.8-0.5,1.06-0.86c0.26-0.36,0.43-0.74,0.5-1.16
				c0.09-0.54,0.05-0.97-0.13-1.3C181.95,39.07,181.7,38.82,181.39,38.65z"/>
		</g>
	</g>
</g>
</svg>
